<?xml version="1.0" standalone="no"?>
<!DOCTYPE svg PUBLIC "-//W3C//DTD SVG 20010904//EN"
 "http://www.w3.org/TR/2001/REC-SVG-20010904/DTD/svg10.dtd">
<svg version="1.0" xmlns="http://www.w3.org/2000/svg"
 width="700.000000pt" height="700.000000pt" viewBox="0 0 700.000000 700.000000"
 preserveAspectRatio="xMidYMid meet">
<metadata>
Created by potrace 1.11, written by Peter Selinger 2001-2013
</metadata>
<g transform="translate(0.000000,700.000000) scale(0.100000,-0.100000)"
fill="#000000" stroke="none">
<path d="M1040 6982 c-69 -34 -97 -109 -65 -176 8 -17 385 -401 837 -853 710
-709 828 -823 863 -832 49 -13 384 -14 440 -1 26 6 52 22 74 46 31 34 33 40
29 92 -4 48 -10 60 -41 89 l-37 33 -187 0 -188 0 -800 800 c-448 447 -812 804
-828 810 -39 14 -57 13 -97 -8z"/>
<path d="M5850 6983 c-43 -22 -80 -76 -80 -115 0 -76 61 -138 135 -138 73 0
135 62 135 137 0 90 -110 157 -190 116z"/>
<path d="M5460 6589 c-14 -5 -295 -280 -625 -609 l-600 -600 -160 0 c-261 0
-438 -40 -647 -147 -131 -66 -208 -122 -340 -244 -130 -120 -158 -158 -158
-216 0 -82 51 -133 132 -133 55 0 68 9 203 140 167 161 303 242 497 296 83 23
118 27 328 33 191 5 241 10 265 23 45 25 1262 1249 1275 1281 15 42 12 78 -10
114 -35 57 -105 85 -160 62z"/>
<path d="M69 6017 c-46 -30 -73 -87 -64 -135 6 -33 101 -132 811 -842 l804
-805 0 -116 c0 -104 2 -120 23 -150 63 -93 212 -64 237 46 13 55 12 261 -1
310 -9 35 -123 153 -832 863 -452 452 -836 829 -853 837 -45 21 -86 19 -125
-8z"/>
<path d="M6805 6025 c-17 -9 -400 -385 -852 -838 -709 -709 -823 -827 -832
-862 -13 -49 -14 -384 -1 -440 6 -26 22 -52 46 -74 34 -31 40 -33 92 -29 48 4
60 10 89 41 l33 37 0 187 0 188 804 805 c885 886 840 834 800 917 -36 72 -112
101 -179 68z"/>
<path d="M3677 4870 c-101 -17 -128 -39 -444 -353 -294 -292 -302 -300 -308
-271 -17 79 -50 145 -96 198 -161 179 -450 167 -597 -27 -63 -83 -406 -598
-445 -668 -56 -100 -97 -204 -130 -329 -29 -111 -30 -124 -34 -385 l-5 -270
-803 -805 c-884 -886 -839 -834 -799 -917 36 -72 110 -100 178 -68 17 8 401
385 853 837 709 710 823 828 832 863 6 23 11 142 11 286 0 329 22 444 123 634
58 108 430 658 464 684 75 60 195 -12 179 -107 -3 -19 -44 -99 -92 -178 -100
-166 -110 -201 -72 -274 40 -78 121 -114 201 -90 36 10 113 82 522 491 485
483 488 486 550 481 74 -6 117 -92 81 -160 -8 -15 -139 -151 -291 -302 -224
-224 -277 -282 -286 -313 -26 -97 67 -187 168 -163 19 5 148 127 393 371 201
199 375 368 387 374 53 27 121 2 147 -54 34 -70 34 -69 -369 -475 -290 -292
-373 -382 -378 -406 -9 -48 10 -99 50 -134 33 -30 41 -32 90 -28 l55 5 281
280 c155 155 293 286 306 293 80 41 161 -14 161 -107 0 -34 -17 -53 -284 -322
-156 -157 -289 -296 -295 -308 -6 -12 -11 -43 -11 -69 0 -41 5 -51 39 -85 35
-35 44 -39 88 -39 64 0 65 1 294 227 168 166 188 183 220 183 78 0 138 -80
110 -148 -7 -15 -256 -271 -554 -569 -568 -565 -601 -594 -761 -668 -153 -71
-234 -86 -496 -94 -190 -5 -241 -10 -265 -23 -16 -9 -321 -308 -676 -665 -711
-712 -687 -684 -654 -770 22 -57 62 -83 130 -83 l49 0 636 635 636 635 159 0
c184 0 302 16 443 61 124 40 291 125 395 202 116 84 1157 1126 1188 1187 65
130 63 268 -4 383 -25 42 -89 107 -136 137 l-24 16 23 62 c19 51 22 76 18 144
-7 131 -67 237 -169 301 l-47 29 14 41 c65 185 -24 392 -204 475 -75 34 -185
41 -266 18 -32 -10 -59 -16 -60 -14 -2 2 -17 24 -34 49 -55 82 -144 139 -247
158 -65 12 -69 12 -138 1z"/>
<path d="M5104 3546 c-78 -34 -98 -104 -61 -209 54 -149 60 -190 66 -432 5
-187 10 -236 23 -260 9 -16 387 -400 840 -852 729 -728 827 -822 860 -828 49
-9 79 -1 117 30 36 31 55 83 46 128 -6 26 -166 192 -811 837 l-804 805 0 158
c0 182 -10 262 -50 402 -47 163 -68 200 -133 224 -36 14 -55 13 -93 -3z"/>
<path d="M3880 1880 c-20 -5 -49 -24 -68 -45 -32 -35 -34 -41 -30 -93 4 -48
10 -60 41 -89 l37 -33 187 0 188 0 805 -804 c886 -885 834 -840 917 -800 72
36 100 110 68 178 -8 17 -385 401 -837 853 -710 709 -828 823 -863 832 -46 13
-393 13 -445 1z"/>
<path d="M1024 251 c-35 -21 -64 -75 -64 -118 0 -15 9 -42 20 -60 55 -90 168
-93 227 -4 27 40 29 80 6 128 -32 68 -123 94 -189 54z"/>
</g>
</svg>
